<?xml version="1.0" encoding="iso-8859-1"?>
<!-- Uploaded to: SVG Repo, www.svgrepo.com, Generator: SVG Repo Mixer Tools -->
<svg version="1.1" id="Layer_1" xmlns="http://www.w3.org/2000/svg" xmlns:xlink="http://www.w3.org/1999/xlink" 
	 viewBox="0 0 512 512" xml:space="preserve">
<path style="fill:#DFDFE0;" d="M416.741,502.87H95.235c-45.789,0-81.8-39.136-77.998-84.767l19.157-229.88h439.187l19.157,229.88
	C498.541,463.734,462.531,502.87,416.741,502.87z"/>
<path style="fill:#CECED1;" d="M416.741,502.87H256.193l-1.035-314.647h220.424l19.157,229.88
	C498.541,463.734,462.531,502.87,416.741,502.87z"/>
<path style="fill:#757576;" d="M397.361,144.25l-3.868-90.732c-0.499-11.706,3.69-22.811,11.797-31.27
	c8.106-8.46,19.024-13.118,30.74-13.118c11.716,0,22.633,4.659,30.739,13.117c8.106,8.46,12.296,19.565,11.797,31.271l-3.867,90.724
	l-33.361-1.421l3.867-90.724c0.146-3.408-1.532-5.689-2.544-6.746s-3.221-2.829-6.63-2.829s-5.619,1.773-6.632,2.83
	c-1.013,1.056-2.69,3.338-2.544,6.745l3.868,90.732L397.361,144.25z"/>
<rect y="126.888" style="fill:#92E0D3;" width="512" height="79.549"/>
<rect x="256" y="126.888" style="fill:#6DB2A6;" width="256" height="79.549"/>
<path style="fill:#DC90CC;" d="M184.159,360.575c39.677,0,71.841,37.773,71.841,37.773s-32.165,37.773-71.841,37.773
	s-71.841-37.773-71.841-37.773S144.481,360.575,184.159,360.575z"/>
<path style="fill:#C0369E;" d="M231.91,320.839c28.055,28.056,24.09,77.51,24.09,77.51s-49.454,3.966-77.51-24.09
	c-28.056-28.055-24.09-77.51-24.09-77.51S203.854,292.783,231.91,320.839z"/>
<path style="fill:#470D3D;" d="M327.841,360.575c-39.677,0-71.841,37.773-71.841,37.773s32.165,37.773,71.841,37.773
	s71.841-37.773,71.841-37.773S367.519,360.575,327.841,360.575z"/>
<path style="fill:#5C1D4E;" d="M280.09,320.839c-28.055,28.056-24.09,77.51-24.09,77.51s49.454,3.966,77.51-24.09
	c28.056-28.055,24.09-77.51,24.09-77.51S308.146,292.783,280.09,320.839z"/>
<path style="fill:#8B2975;" d="M218.227,326.507c0,39.677,37.773,71.841,37.773,71.841s37.773-32.165,37.773-71.841
	S256,254.665,256,254.665S218.227,286.83,218.227,326.507z"/>
</svg>